<svg width="14" height="11" viewBox="0 0 14 11" fill="none" xmlns="http://www.w3.org/2000/svg">
<path fill-rule="evenodd" clip-rule="evenodd" d="M1.11424 0.947705C0.333191 1.72875 0.333191 2.98583 0.333191 5.49999C0.333191 8.01415 0.333191 9.27123 1.11424 10.0523C1.89529 10.8333 3.15237 10.8333 5.66652 10.8333H8.33319C10.8473 10.8333 12.1044 10.8333 12.8855 10.0523C13.6665 9.27123 13.6665 8.01415 13.6665 5.49999C13.6665 2.98583 13.6665 1.72875 12.8855 0.947705C12.1044 0.166656 10.8473 0.166656 8.33319 0.166656H5.66652C3.15237 0.166656 1.89529 0.166656 1.11424 0.947705ZM11.384 2.51323C11.5608 2.72537 11.5321 3.04065 11.3199 3.21743L9.85563 4.4377C9.26472 4.93014 8.78578 5.32927 8.36307 5.60114C7.92274 5.88434 7.49391 6.06324 6.99986 6.06324C6.50581 6.06324 6.07697 5.88434 5.63664 5.60114C5.21393 5.32927 4.735 4.93014 4.14409 4.43771L2.67976 3.21743C2.46763 3.04065 2.43896 2.72537 2.61575 2.51323C2.79253 2.30109 3.10781 2.27243 3.31995 2.44921L4.75921 3.6486C5.38119 4.16691 5.81301 4.5256 6.17758 4.76008C6.53049 4.98705 6.76981 5.06324 6.99986 5.06324C7.22991 5.06324 7.46923 4.98705 7.82213 4.76008C8.1867 4.5256 8.61853 4.16691 9.2405 3.6486L10.6798 2.44921C10.8919 2.27243 11.2072 2.30109 11.384 2.51323Z" fill="white"/>
</svg>
