<svg width="17" height="17" viewBox="0 0 17 17" fill="none" xmlns="http://www.w3.org/2000/svg">
<path d="M16.4999 8.5C16.4999 4.08172 12.9182 0.5 8.49988 0.5C4.0816 0.5 0.499878 4.08172 0.499878 8.5C0.499878 12.493 3.42536 15.8027 7.24988 16.4028V10.8125H5.21863V8.5H7.24988V6.7375C7.24988 4.7325 8.44422 3.625 10.2716 3.625C11.1469 3.625 12.0624 3.78125 12.0624 3.78125V5.75H11.0536C10.0598 5.75 9.74988 6.36667 9.74988 6.99933V8.5H11.9686L11.6139 10.8125H9.74988V16.4028C13.5744 15.8027 16.4999 12.493 16.4999 8.5Z" fill="#1877F2"/>
<path d="M11.6139 10.8125L11.9686 8.5H9.74988V6.99933C9.74988 6.36667 10.0598 5.75 11.0536 5.75H12.0624V3.78125C12.0624 3.78125 11.1469 3.625 10.2716 3.625C8.44422 3.625 7.24988 4.7325 7.24988 6.7375V8.5H5.21863V10.8125H7.24988V16.4028C7.65717 16.4667 8.07463 16.5 8.49988 16.5C8.92513 16.5 9.34258 16.4667 9.74988 16.4028V10.8125H11.6139Z" fill="white"/>
</svg>
