<svg width="17" height="17" viewBox="0 0 17 17" fill="none" xmlns="http://www.w3.org/2000/svg">
<path d="M16.4922 8.64967C16.4922 7.99416 16.4378 7.51581 16.32 7.01974H8.65924V9.9784H13.1559C13.0653 10.7137 12.5757 11.821 11.4878 12.565L11.4726 12.6641L13.8947 14.4975L14.0626 14.5139C15.6037 13.1231 16.4922 11.0768 16.4922 8.64967Z" fill="#4285F4"/>
<path d="M8.65924 16.445C10.8622 16.445 12.7117 15.7363 14.0626 14.5139L11.4878 12.565C10.7988 13.0345 9.87405 13.3623 8.65924 13.3623C6.50155 13.3623 4.67024 11.9716 4.01743 10.0493L3.92174 10.0573L1.40312 11.9618L1.37018 12.0513C2.71193 14.6556 5.46799 16.445 8.65924 16.445Z" fill="#34A853"/>
<path d="M4.01744 10.0493C3.84519 9.55324 3.7455 9.0217 3.7455 8.47251C3.7455 7.92326 3.84519 7.39177 4.00838 6.89571L4.00382 6.79006L1.45363 4.85492L1.37019 4.8937C0.81719 5.97443 0.499878 7.18805 0.499878 8.47251C0.499878 9.75697 0.81719 10.9705 1.37019 12.0513L4.01744 10.0493Z" fill="#FBBC05"/>
<path d="M8.65924 3.58269C10.1914 3.58269 11.2249 4.22934 11.8142 4.76974L14.1169 2.57285C12.7027 1.2884 10.8622 0.5 8.65924 0.5C5.46799 0.5 2.71193 2.28937 1.37018 4.89371L4.00837 6.89573C4.67024 4.97347 6.50155 3.58269 8.65924 3.58269Z" fill="#EB4335"/>
</svg>
