<svg width="28" height="16" viewBox="0 0 28 16" xmlns="http://www.w3.org/2000/svg">
<path fill-rule="evenodd" clip-rule="evenodd" d="M18.212 0.125174C18.0574 0.126399 17.9058 0.168534 17.7728 0.247363C12.3108 3.52491 9.16867 8.17961 7.24313 14.106C6.89531 14.0639 6.48508 13.9233 6.00073 13.7369C5.42434 13.5149 4.7468 13.2361 3.92436 13.2498C3.1675 13.263 2.39153 13.5123 1.72495 13.7403C1.05837 13.9682 0.530402 14.1923 0.530402 14.1923C0.0858226 14.3829 -0.11973 14.8981 0.0715514 15.3424C0.261173 15.788 0.776675 15.9948 1.22167 15.8038C1.22167 15.8038 1.69484 15.602 2.29403 15.3971C2.89322 15.1922 3.64883 15.0048 3.95341 14.9998C4.33329 14.9931 4.80212 15.1512 5.3744 15.3715C5.94668 15.5918 6.61979 15.8722 7.43795 15.8722C7.74232 15.8897 8.05066 15.8339 8.30524 15.7619C8.74783 15.6603 9.14687 15.508 9.5015 15.3715C10.0738 15.1511 10.5426 14.9934 10.9225 14.9998C11.2222 15.0047 11.6183 15.1542 12.1205 15.3715C12.6226 15.5887 13.2341 15.8722 14.0003 15.8722C14.7664 15.8722 15.3779 15.5887 15.8801 15.3715C16.3823 15.1542 16.7784 15.0048 17.0781 14.9998C17.458 14.9931 17.9268 15.1512 18.4991 15.3715C19.0714 15.5918 19.7445 15.8722 20.5626 15.8722C21.3808 15.8722 22.0539 15.5918 22.6262 15.3715C23.1985 15.1511 23.6673 14.9934 24.0472 14.9998C24.3518 15.0047 25.1074 15.1922 25.7065 15.3971C26.3057 15.602 26.7789 15.8038 26.7789 15.8038C27.2239 15.9948 27.7394 15.7879 27.929 15.3424C28.1203 14.8981 27.9148 14.3829 27.4702 14.1923C27.4702 14.1923 26.9422 13.9682 26.2756 13.7403C25.609 13.5123 24.8331 13.2624 24.0762 13.2498C23.2538 13.2366 22.5762 13.5149 21.9998 13.7369C21.5502 13.91 21.1626 14.0464 20.8309 14.0991C20.8266 14.0932 20.8223 14.0871 20.818 14.0812C18.0638 10.4912 18.9628 4.96076 19.0963 1.0292C19.1128 0.530907 18.7105 0.119593 18.212 0.125174Z" fill="#80D11D"/>
</svg>
