<svg width="182" height="104" viewBox="0 0 182 104" fill="none" xmlns="http://www.w3.org/2000/svg">
<g style="mix-blend-mode:soft-light">
<path d="M20.0691 100.502C19.7161 96.1402 19.2809 91.7865 18.808 87.4461C22.2872 86.0366 25.7664 84.6271 29.2361 83.221C31.2726 85.5029 33.2875 87.8137 35.2929 90.1278C36.5653 91.5979 37.4993 93.0709 39.5612 93.2333C41.0434 93.346 42.0305 92.6579 42.486 91.2455C42.8219 90.2147 42.582 89.3556 41.9033 88.5454C41.173 87.6791 40.2311 87.3544 39.2549 87.5932C37.5836 86.105 35.4547 82.7209 34.5508 81.6933C32.5753 79.464 30.5622 77.2481 28.5368 75.0577C24.157 70.3158 19.6464 65.6839 15.0614 61.1418C13.0911 59.1971 10.4515 61.7523 11.1894 63.931C10.9089 64.3376 10.7665 64.8652 10.8732 65.5275C12.7086 77.2666 14.108 89.0324 15.072 100.857C15.3348 104.062 20.3226 103.711 20.0597 100.505L20.0691 100.502ZM25.6615 79.2871C23.184 80.2897 20.7064 81.2922 18.2289 82.2948C17.7172 78.0848 17.1457 73.8854 16.5236 69.6931C19.6193 72.8417 22.659 76.0419 25.6521 79.2904L25.6615 79.2871Z" fill="white"/>
</g>
<g style="mix-blend-mode:soft-light">
<path d="M35.5647 48.8708C36.0647 49.5956 36.3129 50.3882 36.3065 51.2708C36.3676 53.0946 35.4851 54.8594 34.8727 56.5181C33.9133 59.1161 33.1464 61.5082 33.19 64.3033C33.2217 66.2542 35.6044 67.2047 37.1201 66.1814C40.3793 63.9693 43.8146 62.2253 47.5196 60.8845C50.549 59.793 48.8834 55.0786 45.854 56.1701C43.5034 57.0218 41.2444 58.0426 39.0482 59.211C40.6258 54.2204 43.3677 49.073 38.6015 44.8283" fill="white"/>
</g>
<g style="mix-blend-mode:soft-light">
<path d="M58.4958 73.8804C60.3867 73.679 62.2232 73.2635 63.9803 72.6533C64.4749 73.7831 65.0011 74.9123 65.5428 76.0254C66.9444 78.8817 71.6782 77.241 70.2573 74.3598C69.6306 73.0964 69.0605 71.813 68.4998 70.5263C69.4759 69.9269 70.4159 69.2554 71.3038 68.4963C73.7371 66.4381 70.9085 62.3043 68.4441 64.3946C67.8551 64.8891 67.259 65.333 66.6434 65.752C66.0504 64.0737 65.4919 62.3726 64.9993 60.6482C64.128 57.5516 59.4169 59.2266 60.2849 62.3138C60.8285 64.2429 61.4571 66.142 62.1422 68.0211C60.872 68.4486 59.5364 68.7508 58.1381 68.9054C54.937 69.241 55.2886 74.2287 58.4897 73.8932L58.4958 73.8804Z" fill="white"/>
</g>
<g style="mix-blend-mode:soft-light">
<path d="M92.4497 67.41C90.1106 69.6152 93.938 72.8234 96.2648 70.6438C103.142 64.1733 99.1072 53.7734 90.7902 52.4165C91.1597 49.1997 90.889 45.7318 88.3888 43.5182C85.5734 41.013 81.5415 41.5784 78.8575 43.9478C75.7188 46.7112 75.2902 50.8716 76.1441 54.7592C77.5323 61.1201 80.5441 67.3634 82.8131 73.4555C83.9296 76.4655 88.6473 74.8093 87.5275 71.7899C85.7032 66.8664 83.7907 61.9635 82.0479 57.0006C81.1884 54.5679 79.5412 50.1758 81.8903 48.1792C83.3327 46.9484 85.2718 48.2042 85.9185 49.8847C86.3627 51.0217 85.6306 53.2424 85.3974 54.3536C85.074 55.8996 86.4402 57.4851 88.0249 57.3176C94.3355 56.6577 96.907 63.2156 92.4402 67.4134L92.4497 67.41Z" fill="white"/>
</g>
<g style="mix-blend-mode:soft-light">
<path d="M98.9932 25.2629C98.4443 29.4128 97.5914 33.5428 96.8965 37.67C96.5987 39.4086 98.3815 41.3028 100.186 40.4957C103.913 38.8288 107.638 37.1524 111.365 35.4854C114.277 34.1809 112.64 29.4565 109.7 30.771C107.356 31.8218 105.012 32.8726 102.668 33.9234C103.255 30.8102 103.834 27.6782 104.111 24.5579" fill="white"/>
</g>
<g style="mix-blend-mode:soft-light">
<path d="M126.641 48.7334C123.176 50.2439 119.702 51.7576 116.237 53.2681C113.306 54.5476 114.943 59.272 117.903 57.9825C121.368 56.4721 124.842 54.9583 128.307 53.4478C131.238 52.1683 129.6 47.4439 126.641 48.7334Z" fill="white"/>
</g>
<g style="mix-blend-mode:soft-light">
<path d="M123.903 38.8828C120.221 40.4699 116.546 42.0442 112.864 43.6313C109.927 44.8919 111.567 49.6258 114.53 48.3457C118.212 46.7586 121.887 45.1843 125.569 43.5972C128.507 42.3366 126.866 37.6027 123.903 38.8828Z" fill="white"/>
</g>
<g style="mix-blend-mode:soft-light">
<path d="M155.71 38.6435C154.368 45.8312 144.439 42.9755 142.289 37.8807C140.014 32.4908 144.582 27.0483 149.998 26.7681C153.214 26.5968 152.853 21.6124 149.646 21.7804C139.816 22.2944 133.052 33.5292 138.919 42.0304C144.267 49.7817 158.588 50.481 160.617 39.5933C161.205 36.4263 156.293 35.4893 155.704 38.6563L155.71 38.6435Z" fill="white"/>
</g>
<g style="mix-blend-mode:soft-light">
<path d="M160.789 2.13652C162.657 3.16267 162.485 6.09764 162.146 7.84006C161.506 11.1313 160.015 14.0551 161.667 17.3212C163.103 20.1547 167.831 18.5268 166.382 15.6555C164.838 12.6057 167.55 8.63543 167.361 5.3084" fill="white"/>
</g>
<g style="mix-blend-mode:soft-light">
<path d="M166.72 28.0508C169.756 26.9781 168.091 22.2637 165.055 23.3363C162.019 24.409 163.684 29.1234 166.72 28.0508Z" fill="white"/>
</g>
</svg>