<svg width="220" height="87" viewBox="0 0 220 87" fill="none" xmlns="http://www.w3.org/2000/svg">
<path d="M198.875 69.0349C194.491 69.0251 190.219 70.4206 186.687 73.0167C185.652 67.9945 182.785 63.5374 178.644 60.514C179.765 57.4004 180.121 54.0627 179.681 50.7826C179.241 47.5026 178.019 44.3765 176.117 41.6681C174.215 38.9598 171.69 36.7488 168.754 35.2217C165.818 33.6945 162.557 32.8962 159.248 32.8939H159.071C159.455 29.9861 159.213 27.0298 158.361 24.2232C157.509 21.4167 156.066 18.8249 154.13 16.6218C152.194 14.4186 149.809 12.6551 147.135 11.4495C144.461 10.2439 141.56 9.62404 138.627 9.63166C135.75 9.62885 132.903 10.2299 130.273 11.3958C127.642 12.5618 125.285 14.2668 123.355 16.4007C118.642 9.69168 111.915 4.65883 104.148 2.03251C96.3816 -0.593814 87.9803 -0.676996 80.1632 1.79505C72.3462 4.26709 65.5202 9.16574 60.6759 15.7801C55.8316 22.3944 53.221 30.3804 53.2229 38.579C53.2229 39.4107 53.2583 40.2336 53.307 41.0521C49.3172 38.8969 44.7281 38.1172 40.2504 38.8338C35.7727 39.5505 31.6562 41.7234 28.5383 45.0161C25.4204 48.3088 23.4751 52.5377 23.0036 57.0478C22.5321 61.5579 23.5608 66.0976 25.9303 69.964C20.8147 68.3613 15.2762 68.812 10.487 71.2206C5.69775 73.6293 2.03365 77.8069 0.270112 82.8693L0.000244141 82.9047V92.0406H219.359C219.701 89.1498 219.425 86.2196 218.551 83.443C217.677 80.6665 216.225 78.1068 214.289 75.9328C212.353 73.7589 209.979 72.02 207.322 70.831C204.665 69.642 201.786 69.0298 198.875 69.0349Z" fill="url(#paint0_linear_1_90)" fill-opacity="0.4"/>
<path d="M198.875 69.035C194.491 69.0252 190.22 70.4207 186.687 73.0167C185.652 67.9946 182.785 63.5375 178.644 60.514C180.017 56.7059 180.24 52.5776 179.283 48.6439C178.326 44.7102 176.233 41.1452 173.264 38.3932C174.983 43.8331 174.589 49.7209 172.161 54.8835C169.733 60.0462 165.45 64.1046 160.163 66.2502C154.877 68.3958 148.977 68.4711 143.638 66.461C138.298 64.4509 133.912 60.5031 131.354 55.4041C130.985 58.2795 129.999 61.0413 128.463 63.5002C126.928 65.9592 124.879 68.0573 122.457 69.6509C120.035 71.2445 117.298 72.296 114.432 72.7334C111.566 73.1707 108.64 72.9837 105.853 72.185C104.7 75.3842 102.756 78.2392 100.201 80.4835C97.6463 82.7278 94.5645 84.2882 91.2435 85.0189C87.9224 85.7497 84.4703 85.627 81.2095 84.6623C77.9487 83.6977 74.9854 81.9225 72.5964 79.5025C69.1748 82.0502 65.0319 83.4442 60.7661 83.4832C56.5004 83.5221 52.3327 82.2041 48.8652 79.7193C48.0032 84.5938 45.3762 88.98 41.4856 92.0406H219.337C219.678 89.1517 219.404 86.2233 218.531 83.4483C217.658 80.6733 216.208 78.1147 214.274 75.9411C212.341 73.7675 209.969 72.0282 207.315 70.8378C204.661 69.6475 201.784 69.033 198.875 69.035Z" fill="url(#paint1_linear_1_90)"/>
<defs>
<linearGradient id="paint0_linear_1_90" x1="-0.00433357" y1="46.0203" x2="219.501" y2="46.0203" gradientUnits="userSpaceOnUse">
<stop stop-color="#ECF2E2"/>
<stop offset="1" stop-color="#D6E4C1"/>
</linearGradient>
<linearGradient id="paint1_linear_1_90" x1="41.4819" y1="65.2169" x2="219.479" y2="65.2169" gradientUnits="userSpaceOnUse">
<stop stop-color="#F0F4EA"/>
<stop offset="1" stop-color="#F1F6E9"/>
</linearGradient>
</defs>
</svg>