<svg width="72" height="77" viewBox="0 0 72 77" fill="none" xmlns="http://www.w3.org/2000/svg">
<g style="mix-blend-mode:soft-light">
<path d="M21.6505 75.2764C36.0248 69.322 50.6545 64.1804 65.5828 59.8259C68.6497 60.3709 71.744 55.9294 69.0193 52.8185C56.2062 38.2285 43.3896 23.6268 30.5765 9.03684C28.3579 6.51147 25.2533 8.18747 24.3524 10.7169C22.9647 10.8899 21.7693 11.7928 21.5233 13.6569C19.1577 31.6347 17.6043 49.6876 16.8865 67.8086C16.8592 68.528 17.0016 69.1331 17.2553 69.6416C15.8253 72.5322 17.9677 76.8075 21.6505 75.2764ZM28.8258 19.0462C38.9177 30.5369 48.9945 42.0195 59.0864 53.5102C47.5332 57.0096 36.1612 60.9884 24.9588 65.4498C25.6265 49.9346 26.9183 34.4616 28.8258 19.0462Z" fill="white"/>
</g>
</svg>