<svg width="234" height="180" viewBox="0 0 234 180" fill="none" xmlns="http://www.w3.org/2000/svg">
<path d="M127.798 181.302C96.0911 140.312 50.2346 110.633 -0.00012207 98.5366C36.6044 84.7074 80.6096 93.1689 109.517 119.637C80.7561 81.6631 54.7211 41.6833 31.6092 0C77.8787 17.894 116.446 54.9898 136.267 100.64C129.202 72.4005 130.383 42.7154 139.669 15.1321L166.647 119.183C167.59 105.28 176.852 93.0322 188.266 85.0978C199.68 77.1633 213.13 72.8594 226.367 68.6579C229.36 71.3174 227.378 76.2215 225.235 79.613L193.227 130.235C205.854 124.912 219.319 121.875 233 121.266C200.656 151.178 161.32 172.411 118.633 183" fill="url(#paint0_linear_1_105)" fill-opacity="0.4"/>
<path d="M205.333 194H233.08C234.211 190.919 234.302 187.548 233.337 184.41C232.373 181.272 230.407 178.543 227.746 176.646C225.084 174.748 221.876 173.789 218.618 173.918C215.361 174.046 212.236 175.254 209.73 177.354C209.798 176.769 209.833 176.181 209.837 175.592C209.844 172.845 209.17 170.139 207.877 167.72C206.583 165.302 204.711 163.247 202.43 161.742C200.149 160.237 197.531 159.329 194.814 159.102C192.097 158.875 189.367 159.334 186.87 160.439C187.523 158.34 187.753 156.131 187.546 153.941C187.34 151.751 186.701 149.625 185.667 147.688C184.633 145.75 183.225 144.041 181.526 142.659C179.827 141.278 177.872 140.253 175.774 139.644C173.676 139.036 171.479 138.856 169.311 139.115C167.143 139.374 165.049 140.068 163.151 141.155C161.253 142.241 159.589 143.7 158.259 145.443C156.928 147.187 155.956 149.181 155.402 151.309C153.5 148.973 150.999 147.207 148.17 146.205C145.342 145.203 142.294 145.003 139.36 145.627C136.426 146.251 133.719 147.674 131.533 149.743C129.347 151.811 127.767 154.444 126.965 157.355C123.891 154.443 119.82 152.838 115.601 152.876C111.382 152.914 107.341 154.592 104.319 157.559C101.298 160.527 99.5299 164.555 99.3841 168.804C99.2383 173.053 100.726 177.195 103.537 180.365C99.9681 180.719 96.6133 182.243 93.9873 184.703C91.3613 187.164 89.6092 190.425 88.9999 193.985H205.333V194Z" fill="url(#paint1_linear_1_105)"/>
<path d="M205.279 193.98H233.078C234.212 190.911 234.302 187.552 233.336 184.425C232.369 181.299 230.4 178.579 227.734 176.689C225.068 174.799 221.853 173.843 218.589 173.971C215.326 174.099 212.195 175.302 209.684 177.395C209.752 176.812 209.788 176.226 209.791 175.639C209.793 173.476 209.369 171.335 208.542 169.337C207.715 167.34 206.501 165.526 204.972 164C203.762 167.726 201.233 170.88 197.863 172.867C194.492 174.854 190.512 175.536 186.674 174.785C185.387 176.558 183.752 178.048 181.869 179.163C179.985 180.279 177.894 180.995 175.723 181.27C173.553 181.544 171.349 181.37 169.249 180.758C167.148 180.146 165.195 179.109 163.509 177.712C160.112 179.031 156.368 179.153 152.892 178.059C151.761 180.431 150.065 182.489 147.954 184.052C145.843 185.614 143.381 186.632 140.786 187.018C138.19 187.403 135.539 187.144 133.067 186.262C130.594 185.38 128.376 183.903 126.607 181.961C126.048 184.724 124.774 187.291 122.912 189.404C121.051 191.517 118.667 193.102 116 194H205.279V193.98Z" fill="#EDF2E5"/>
<defs>
<linearGradient id="paint0_linear_1_105" x1="-0.0049813" y1="91.5" x2="233" y2="91.5" gradientUnits="userSpaceOnUse">
<stop stop-color="#ECF2E2"/>
<stop offset="1" stop-color="#D6E4C1"/>
</linearGradient>
<linearGradient id="paint1_linear_1_105" x1="88.9999" y1="166.535" x2="234.013" y2="166.535" gradientUnits="userSpaceOnUse">
<stop stop-color="white"/>
<stop offset="1" stop-color="#E3EDF5"/>
</linearGradient>
</defs>
</svg>