<svg width="125" height="37" viewBox="0 0 125 37" fill="none" xmlns="http://www.w3.org/2000/svg">
<path d="M36.6903 11.9473C34.9596 14.823 33.2389 17.6977 31.5082 20.5733C29.9452 18.926 28.4185 17.2353 26.9752 15.4669C25.4642 13.6141 22.4036 15.7654 23.9364 17.6362C25.7069 19.8071 27.5797 21.8886 29.5261 23.8931C28.2419 26.0361 26.9568 28.169 25.6726 30.312C24.4311 32.3708 27.8248 33.9447 29.0473 31.8976C30.1137 30.1256 31.18 28.3535 32.2364 26.5823C33.608 27.8853 34.9977 29.1666 36.4426 30.3928C38.2783 31.9454 40.6726 29.0807 38.8369 27.5281C37.24 26.1749 35.7075 24.7558 34.2022 23.3042C36.1598 20.0468 38.1083 16.8003 40.0659 13.543C41.3074 11.4842 37.9137 9.91025 36.6903 11.9473Z" fill="white"/>
<path d="M45.5308 20.2025C43.1601 20.525 43.4734 24.2519 45.8632 23.9177C47.4107 23.709 48.9673 23.4894 50.5149 23.2807C50.6688 24.5521 50.8733 25.8289 51.1377 27.1004C51.6169 29.427 55.3347 29.1246 54.8528 26.7681C54.5841 25.4468 54.3642 24.1111 54.205 22.78C55.3749 22.6151 56.5458 22.4602 57.7166 22.3052C60.0873 21.9827 59.774 18.2558 57.3843 18.5901C56.2135 18.745 55.0435 18.9099 53.8826 19.0639C53.7982 17.3346 53.8043 15.6072 53.9092 13.8609C54.0584 11.4881 50.3827 10.8029 50.2353 13.1955C50.0955 15.3365 50.0842 17.4559 50.1934 19.5746C48.6359 19.7842 47.0893 20.0029 45.5317 20.2125L45.5308 20.2025Z" fill="white"/>
<path d="M74.345 25.0246C72.5252 26.9042 69.3426 26.456 68.2905 24.01C67.3503 21.805 63.842 23.1027 64.793 25.3168C67.6118 31.9119 76.4414 30.9514 78.915 24.5958C79.9755 21.8604 79.7127 18.2495 77.543 16.1042C77.2564 15.8186 76.9435 15.5755 76.6134 15.3641C78.3291 13.4436 79.5654 11.2146 78.325 9.35774C76.156 6.09802 68.8534 9.20096 66.2119 10.2003C63.969 11.0535 65.2659 14.5519 67.5187 13.6977C69.7136 12.8689 72.396 11.7655 74.7724 11.8441C75.5838 11.7113 75.5874 11.7512 74.803 11.9619C74.1683 12.0488 73.7196 12.4202 73.457 13.0762C72.5649 13.8789 71.7624 14.784 70.8721 15.6066C70.5712 15.8343 70.2829 16.091 70.0181 16.3858C68.6307 17.9355 70.8868 20.4847 72.5302 19.1028C72.6417 19.0024 72.7731 18.9003 72.9037 18.7882C73.7777 19.1317 74.641 19.4662 75.515 19.8096C75.7766 20.489 75.8381 21.1763 75.6995 21.8714C75.591 23.0156 75.1429 24.1802 74.3251 25.0264L74.345 25.0246Z" fill="white"/>
<path d="M90.7405 17.2832C93.45 16.2577 96.2068 15.6497 99.0988 15.4311C101.492 15.2472 101.17 11.5311 98.7665 11.716C95.5548 11.953 92.4348 12.6538 89.4238 13.7866C87.1809 14.6398 88.4777 18.1382 90.7306 17.284L90.7405 17.2832Z" fill="white"/>
<path d="M100.191 22.03C102.472 21.2638 101.165 17.7663 98.8843 18.5325C95.9894 19.5043 93.0399 19.979 89.9825 20.0316C87.576 20.0661 87.9191 23.7903 90.3148 23.7467C93.6936 23.6955 96.9837 23.1 100.191 22.03Z" fill="white"/>
<path d="M109.759 3.62442C108.689 3.44904 107.376 4.13883 107.383 5.56387C107.388 8.42481 107.807 11.2085 108.557 13.9727C108.705 14.5116 109.017 14.8552 109.384 15.0332C110.022 15.9902 111.427 16.4368 112.306 15.2538C114.625 12.1147 119.624 13.6755 119.421 17.6896C119.201 21.8557 113.989 23.1854 111.298 20.2635C109.696 18.5193 106.625 20.6614 108.258 22.4229C113.173 27.7563 122.755 25.7847 123.151 17.858C123.461 11.5653 116.464 7.97443 111.651 10.8546C111.41 9.62119 111.258 8.36977 111.177 7.12206C114.354 6.5065 117.533 5.9009 120.711 5.28534C123.05 4.83515 122.737 1.10824 120.379 1.57017C116.944 2.22882 113.5 2.89831 110.065 3.55696C109.966 3.57583 109.879 3.61373 109.781 3.64256L109.759 3.62442Z" fill="white"/>
<path d="M3.93325 16.9624C4.82842 14.6233 8.41514 12.9672 9.61488 16.6148C10.2197 18.4382 8.38012 20.8818 7.53142 22.3934C5.88576 25.3216 4.2401 28.2499 2.59444 31.1782C1.87554 32.4573 3.12189 33.9321 4.44838 33.8336C8.49847 33.5416 12.5386 33.2505 16.5896 32.9684C18.9836 32.7945 18.6513 29.0793 16.2573 29.2533C13.3942 29.4592 10.5212 29.6659 7.65819 29.8718C9.34904 26.9998 11.0888 24.1133 12.4982 21.1258C13.697 18.589 13.8502 15.9247 12.1625 13.5557C8.96038 9.07311 2.41344 10.5221 0.558564 15.3767C-0.295714 17.6117 3.08076 19.2173 3.93325 16.9624Z" fill="white"/>
</svg>