<svg width="79" height="75" viewBox="0 0 79 75" fill="none" xmlns="http://www.w3.org/2000/svg">
<g style="mix-blend-mode:soft-light">
<path d="M54.8482 19.1736C49.9144 16.5824 44.992 13.9748 40.0607 11.3975C35.9835 9.25596 34.5059 10.1894 31.7815 13.8612C28.2616 18.6241 24.6924 23.3528 21.0658 28.0415C19.2525 30.3859 17.431 32.7245 15.6069 35.0492C14.5427 36.4042 13.2776 38.5208 11.7426 39.9746C12.9479 34.2838 14.3105 28.6295 15.8445 23.009C16.4725 20.7051 12.955 19.4401 12.3238 21.7662C10.3944 28.8657 8.71354 36.0284 7.28676 43.246C7.03737 44.4978 8.41298 45.3571 9.47515 45.231C13.1399 44.7957 15.1752 41.6069 17.2947 38.9273C20.8196 34.4724 24.3035 29.989 27.7381 25.4712C29.3841 23.315 31.0193 21.1391 32.6406 18.9657C33.4639 17.8696 34.2422 16.2427 35.2908 15.4007C35.5788 15.0041 35.8807 14.6051 36.1687 14.2085C37.0467 14.1371 37.8419 14.3247 38.543 14.788C43.4125 16.701 48.0865 19.8058 52.7127 22.244C54.8075 23.3477 56.9677 20.2945 54.8425 19.1818L54.8482 19.1736Z" fill="white"/>
</g>
<g style="mix-blend-mode:soft-light">
<path d="M33.556 56.2308C38.9527 58.2791 45.0838 53.6149 43.1435 47.7705C41.6174 43.1521 36.5538 42.3587 32.651 44.0294C34.9106 39.1695 41.3534 35.4407 45.9097 38.6097C47.8799 39.9801 50.018 36.9237 48.0395 35.5476C42.4489 31.6591 35.3211 34.5338 31.3254 39.3678C27.293 44.2371 26.4328 53.5299 33.5585 56.2447L33.556 56.2308ZM38.7031 47.7273C41.9573 50.5267 38.0582 53.418 35.5006 52.8571C33.57 52.4279 32.3845 50.7872 31.9882 48.9402C32.0839 48.8728 32.1795 48.8053 32.2645 48.7182C33.9276 47.0977 36.6054 45.9272 38.7031 47.7273Z" fill="white"/>
</g>
<g style="mix-blend-mode:soft-light">
<path d="M61.8548 57.8738C63.0004 56.0516 64.146 54.2295 65.2915 52.4074C66.5659 50.3825 63.507 48.2305 62.2294 50.2775L58.6981 55.8974C56.3767 54.8918 54.127 53.7655 51.944 52.4908C55.4127 50.6035 58.7957 48.5592 62.0981 46.3857C64.1021 45.0632 61.6924 42.2056 59.708 43.5174C55.745 46.1328 51.6396 48.5151 47.4082 50.6759C46.1918 51.3038 45.8957 53.0955 47.1254 53.902C50.1846 55.8959 53.3684 57.6231 56.6875 59.1034C54.9492 61.8653 53.2108 64.6272 51.4807 67.3949C50.2063 69.4198 53.2652 71.5717 54.5428 69.5247L60.2535 60.4387C61.502 60.43 62.2489 58.9884 61.8687 57.8713L61.8548 57.8738Z" fill="white"/>
</g>
</svg>