<svg width="75" height="116" viewBox="0 0 75 116" fill="none" xmlns="http://www.w3.org/2000/svg">
<g clip-path="url(#clip0_1_93)">
<g style="mix-blend-mode:soft-light">
<path d="M-15.2749 20.0172C-18.4147 25.3208 -16.7728 32.8569 -11.4649 36.0915C-6.37152 39.2028 0.104787 37.9976 3.93408 33.6698C3.61139 35.7924 3.31067 37.9109 3.03607 40.0473C2.63101 43.2277 7.63646 43.2471 8.03605 40.0859C9.08269 31.8689 10.5635 23.7338 12.4331 15.6572C13.1542 12.5354 8.35018 11.149 7.62364 14.2901C7.24265 15.9595 6.88363 17.6248 6.53149 19.3025C5.66554 17.8504 4.27387 16.675 2.21118 15.9951C1.71646 15.8337 1.27003 15.8316 0.875952 15.9379C0.823707 15.9022 0.781081 15.8693 0.716483 15.8405C-4.83379 13.1296 -11.9803 14.4249 -15.2942 20.0117L-15.2749 20.0172ZM-0.0522363 20.3003C0.188432 20.5143 0.490865 20.6938 0.863269 20.8101C5.4119 22.2902 1.37915 29.5647 -0.831293 31.3795C-3.3532 33.4488 -7.46731 33.3293 -9.85769 31.0592C-15.5407 25.67 -8.62548 16.8133 -1.8519 20.1214C-1.21139 20.4282 -0.595973 20.4576 -0.0426172 20.303L-0.0522363 20.3003Z" fill="white"/>
</g>
<g style="mix-blend-mode:soft-light">
<path d="M-29.0003 52.5022C-3.11408 58.0622 22.4471 64.9851 47.6116 73.23C50.6734 74.2355 52.0309 69.4233 48.9788 68.4206C23.8169 60.166 -1.74694 53.2527 -27.6332 47.6928C-30.759 47.0225 -32.155 51.8238 -29.0003 52.5022Z" fill="white"/>
</g>
<g style="mix-blend-mode:soft-light">
<path d="M18.7893 16.0086C17.0498 18.7265 21.3348 21.3169 23.0619 18.6058C23.8638 17.3575 25.3917 16.7002 26.7295 17.5899C28.6707 18.8798 26.4878 19.6836 25.3473 20.4406C22.8029 22.15 20.249 23.8568 17.7019 25.5758C15.9411 26.7595 16.0574 29.4955 18.2369 30.1671C21.4428 31.1408 24.6364 32.1213 27.8423 33.095C30.9232 34.0332 32.2903 29.2237 29.2095 28.2856C27.7075 27.8274 26.2151 27.372 24.7132 26.9139C26.5055 25.7288 28.2882 24.541 30.0311 23.3106C32.3173 21.7046 33.3363 19.5096 32.2146 16.7996C29.7739 10.8661 22.0255 10.9507 18.7769 16.0154L18.7893 16.0086Z" fill="white"/>
</g>
<g style="mix-blend-mode:soft-light">
<path d="M49.3899 40.0935C47.9858 39.9127 46.5941 39.725 45.19 39.5442C45.6767 37.832 46.1923 36.1281 46.749 34.4254C47.7449 31.361 42.9327 30.0034 41.9396 33.0583C41.3076 34.9891 40.736 36.9266 40.181 38.8793C37.7066 38.5502 35.2296 38.2307 32.7553 37.9016C29.5776 37.4869 29.5609 42.4828 32.7167 42.9016C34.7802 43.1763 36.8341 43.4482 38.9004 43.7133C38.6107 44.8785 38.3376 46.0588 38.0864 47.235C37.4038 50.3677 42.2078 51.7541 42.8959 48.6021C43.2058 47.1828 43.5446 45.7716 43.8998 44.3755C45.7243 44.6135 47.5364 44.8583 49.3609 45.0962C52.5386 45.5109 52.5552 40.5151 49.3995 40.0962L49.3899 40.0935Z" fill="white"/>
</g>
<g style="mix-blend-mode:soft-light">
<path d="M62.0763 42.972C62.8117 42.3598 63.521 41.7297 64.2207 41.0969C63.0094 46.4185 61.5165 51.6704 59.7515 56.8554C58.7172 59.909 63.5294 61.2665 64.561 58.2226C67.2824 50.2218 69.3483 42.0763 70.7725 33.7379C71.1337 31.6262 68.3996 29.1024 66.6346 31.2518C64.1977 34.2289 61.5695 36.8917 58.6099 39.3668C56.1388 41.4402 59.6203 45.0289 62.0763 42.972Z" fill="white"/>
</g>
<g style="mix-blend-mode:soft-light">
<path d="M-5.44394 99.7955C-1.71776 100.512 1.83567 99.4217 4.55108 97.2202C4.46105 97.6833 4.35177 98.1408 4.259 98.6135C3.66844 101.752 8.4697 103.148 9.06846 99.9806C10.3519 93.1617 12.2097 86.5164 14.6404 80.0132C15.7682 76.9967 10.9533 75.6488 9.83099 78.6461C9.33002 79.9696 8.87442 81.3163 8.42156 82.6534C7.01631 79.551 4.21788 77.2169 0.622699 76.881C0.490768 76.8331 0.371188 76.7784 0.22417 76.747C-6.28735 75.2599 -13.255 78.7788 -14.7156 85.5993C-16.0943 92.0585 -11.9387 98.5418 -5.44121 99.7858L-5.44394 99.7955ZM-2.75998 81.3567C-2.37078 81.7064 -1.82655 81.9131 -1.11372 81.8558C8.18733 81.1002 4.33297 97.4389 -5.09084 94.7497C-13.1226 92.4666 -10.1708 81.2045 -2.75724 81.3471L-2.75998 81.3567Z" fill="white"/>
</g>
<g style="mix-blend-mode:soft-light">
<path d="M19.5468 93.1452C23.3211 93.9478 27.0928 94.76 30.8672 95.5626C33.993 96.2329 35.389 91.4316 32.2343 90.7532C30.1376 90.3027 28.0505 89.855 25.951 89.4141C27.2317 88.7489 28.5454 88.1139 29.5963 87.1963C31.4938 85.5317 32.7719 82.9737 32.3152 80.4112C31.4224 75.3232 24.013 74.215 22.4927 79.4903C21.6026 82.5849 26.4121 83.952 27.3021 80.8575C27.0232 81.8386 27.2823 82.4632 26.4126 83.3284C25.5456 84.184 24.3788 84.7048 23.3218 85.2776C21.2602 86.3861 19.5475 87.5835 18.0926 89.4466C17.1232 90.6993 18.0862 92.834 19.5468 93.1452Z" fill="white"/>
</g>
</g>
<defs>
<clipPath id="clip0_1_93">
<rect width="94.17" height="93" fill="white" transform="translate(-16.571) rotate(15.8684)"/>
</clipPath>
</defs>
</svg>