<svg width="54" height="63" viewBox="0 0 54 63" fill="none" xmlns="http://www.w3.org/2000/svg">
<g style="mix-blend-mode:soft-light">
<path d="M38.7093 61.8164C27.401 53.2415 15.6796 45.3248 3.51283 38.0336C0.680661 37.806 -1.02366 33.172 2.09926 31.0564C16.7761 21.1422 31.4587 11.2186 46.1356 1.3045C48.6767 -0.411333 51.029 1.78478 51.2396 4.22491C52.4242 4.69812 53.2704 5.77099 53.0569 7.47273C50.991 23.8828 48.1911 40.1716 44.6382 56.3274C44.4961 56.9684 44.2306 57.4695 43.8893 57.8596C44.4834 60.7406 41.6053 64.0182 38.7093 61.8164ZM45.3681 10.5412C33.8084 18.3492 22.264 26.1535 10.7043 33.9614C20.0904 39.7184 29.2058 45.8563 38.0601 52.3811C41.0553 38.5362 43.49 24.5845 45.3681 10.5412Z" fill="url(#paint0_linear_1_104)" fill-opacity="0.4"/>
</g>
<defs>
<linearGradient id="paint0_linear_1_104" x1="56.5744" y1="39.0826" x2="12.9216" y2="12.5501" gradientUnits="userSpaceOnUse">
<stop stop-color="#D1E5F5"/>
<stop offset="1" stop-color="#C4DCF0"/>
</linearGradient>
</defs>
</svg>